#!OML:ASF H:\ManfredETheater\Project 1\Capture day 1\Session 1\subject.ASF
:FULLY-SPECIFIED
:DEGREES
136
root -0.254917 15.2753 -18.5446 -201.453 21.6865 -185.181
lowerback 16.5686 -1.33703 0.230003
upperback 1.61884 -0.91043 4.89798
thorax -7.48905 -0.191001 5.33375
lowerneck -14.7749 3.52833 2.37549
upperneck 16.7761 6.1295 -7.56558
head 7.94322 2.49099 -2.18469
rclavicle -3.61788e-014 9.85972e-014
rhumerus -49.6998 -21.5988 -66.473
rradius 45.2982
rwrist -2.95473
rhand -26.2897 -8.57638
rfingers 7.12502
rthumb 0.2659 -38.556
lclavicle -3.61788e-014 9.85972e-014
lhumerus -42.8967 6.62909 57.1739
lradius 83.4139
lwrist 4.39597
lhand -31.1016 6.07271
lfingers 7.12502
lthumb -4.38122 36.0074
rfemur -15.3346 -1.78697 10.9614
rtibia 85.7187
rfoot -16.6077 -12.8325
rtoes -40.8184
lfemur -31.6514 1.35134 -15.254
ltibia 55.3876
lfoot -1.49813 -7.91457
ltoes -9.60281
137
root -0.235163 15.3336 -18.7194 -201.062 20.9076 -184.963
lowerback 16.4411 -1.46949 -0.0835573
upperback 1.59871 -1.16238 4.81952
thorax -7.41152 -0.310375 5.48089
lowerneck -14.867 3.53363 2.36094
upperneck 16.6716 6.10178 -7.47366
head 7.91972 2.48123 -2.15412
rclavicle 1.31198e-014 -5.40694e-014
rhumerus -50.5916 -23.6808 -65.0424
rradius 42.4652
rwrist -3.73216
rhand -26.5434 -9.75401
rfingers 7.12502
rthumb 0.0209173 -39.7338
lclavicle 1.31198e-014 -5.40694e-014
lhumerus -42.574 7.56338 56.1376
lradius 82.3069
lwrist 4.96476
lhand -31.8789 7.17259
lfingers 7.12502
lthumb -5.13183 37.0905
rfemur -15.2799 -1.89876 10.7385
rtibia 85.9733
rfoot -15.0686 -11.9232
rtoes -40.5111
lfemur -31.5782 1.42024 -15.6322
ltibia 55.6473
lfoot -2.1564 -8.47821
ltoes -8.6092
138
root -0.214649 15.3955 -18.888 -200.634 20.0456 -184.759
lowerback 16.2874 -1.63425 -0.40099
upperback 1.55211 -1.46012 4.73113
thorax -7.34159 -0.45308 5.62838
lowerneck -14.9608 3.53335 2.33159
upperneck 16.6368 6.07324 -7.3577
head 7.91832 2.47181 -2.11328
rclavicle -1.82882e-014 3.18055e-014
rhumerus -51.5802 -25.6549 -63.4365
rradius 39.7081
rwrist -4.04972
rhand -26.6987 -10.9075
rfingers 7.12502
rthumb -0.129082 -40.8872
lclavicle -1.82882e-014 3.18055e-014
lhumerus -42.3016 8.44557 55.1824
lradius 81.1351
lwrist 5.56732
lhand -32.4991 8.32002
lfingers 7.12502
lthumb -5.73065 38.2225
rfemur -15.2482 -2.19532 10.484
rtibia 86.1857
rfoot -13.5736 -11.0837
rtoes -39.9693
lfemur -31.5396 1.4474 -16.0345
ltibia 55.8175
lfoot -2.72794 -9.08484
ltoes -7.55457
139
root -0.193233 15.4599 -19.05 -200.163 19.14 -184.515
lowerback 16.1308 -1.82409 -0.667286
upperback 1.47968 -1.77984 4.65086
thorax -7.29474 -0.60744 5.75954
lowerneck -15.0515 3.51678 2.28232
upperneck 16.666 6.02769 -7.20997
head 7.93497 2.45558 -2.06072
rclavicle -1.15295e-014 -3.81667e-014
rhumerus -52.7054 -27.528 -61.635
rradius 37.0591
rwrist -3.79071
rhand -26.7248 -11.9131
rfingers 7.12502
rthumb -0.154329 -41.8927
lclavicle -1.15295e-014 -3.81667e-014
lhumerus -42.0783 9.26074 54.3164
lradius 79.9251
lwrist 6.17911
lhand -32.9028 9.49565
lfingers 7.12502
lthumb -6.12042 39.3872
rfemur -15.2369 -2.65507 10.2814
rtibia 86.3627
rfoot -12.1319 -10.3622
rtoes -39.1391
lfemur -31.5195 1.43904 -16.3828
ltibia 55.9052
lfoot -3.21322 -9.72026
ltoes -6.43174
140
root -0.171083 15.527 -19.2056 -199.656 18.2253 -184.201
lowerback 15.9912 -2.02759 -0.84466
upperback 1.38918 -2.09722 4.58857
thorax -7.27775 -0.761528 5.85883
lowerneck -15.1501 3.47946 2.21773
upperneck 16.7473 5.95573 -7.03043
head 7.9675 2.42803 -1.99815
rclavicle 2.0276e-014 -9.22361e-014
rhumerus -54.007 -29.3083 -59.6184
rradius 34.5658
rwrist -2.91023
rhand -26.6165 -12.7074
rfingers 7.12502
rthumb -0.0496755 -42.6871
lclavicle 2.0276e-014 -9.22361e-014
lhumerus -41.8953 9.99845 53.5488
lradius 78.6998
lwrist 6.74893
lhand -33.0435 10.699
lfingers 7.12502
lthumb -6.25622 40.5866
rfemur -15.2319 -3.24401 10.1875
rtibia 86.4976
rfoot -10.7785 -9.79485
rtoes -37.9847
lfemur -31.4963 1.40555 -16.6315
ltibia 55.9155
lfoot -3.642 -10.3905
ltoes -5.38776
141
root -0.148825 15.5967 -19.3551 -199.126 17.3316 -183.815
lowerback 15.8788 -2.2332 -0.921877
upperback 1.28629 -2.39439 4.54795
thorax -7.29348 -0.906452 5.92078
lowerneck -15.254 3.42018 2.14526
upperneck 16.8617 5.85444 -6.8316
head 8.00983 2.38751 -1.93129
rclavicle -3.22031e-014 -6.36111e-014
rhumerus -55.511 -30.9832 -57.3798
rradius 32.2719
rwrist -1.41606
rhand -26.3631 -13.2301
rfingers 7.12502
rthumb 0.195034 -43.2098
lclavicle -3.22031e-014 -6.36111e-014
lhumerus -41.7564 10.6589 52.8841
lradius 77.4838
lwrist 7.23199
lhand -32.9326 11.8942
lfingers 7.12502
lthumb -6.14917 41.785
rfemur -15.2351 -3.92056 10.2232
rtibia 86.5822
rfoot -9.57277 -9.37016
rtoes -36.4949
lfemur -31.4577 1.35664 -16.7648
ltibia 55.8541
lfoot -4.00932 -11.0796
ltoes -4.36061
142
root -0.12753 15.6686 -19.4995 -198.589 16.495 -183.4
lowerback 15.7854 -2.42113 -0.921781
upperback 1.18218 -2.65114 4.52094
thorax -7.32802 -1.03254 5.94508
lowerneck -15.3741 3.34258 2.07141
upperneck 16.9917 5.72791 -6.62682
head 8.05913 2.33506 -1.86503
rclavicle 6.97734e-014 -5.08889e-014
rhumerus -57.2125 -32.5328 -54.9405
rradius 30.2126
rwrist 0.602009
rhand -25.9876 -13.4481
rfingers 7.12502
rthumb 0.557765 -43.4271
lclavicle 6.97734e-014 -5.08889e-014
lhumerus -41.661 11.2493 52.3258
lradius 76.2944
lwrist 7.58691
lhand -32.5838 13.0208
lfingers 7.12502
lthumb -5.81235 42.9211
rfemur -15.2574 -4.62836 10.3554
rtibia 86.6056
rfoot -8.62281 -9.07377
rtoes -34.8034
lfemur -31.3875 1.30935 -16.8146
ltibia 55.7233
lfoot -4.32895 -11.7553
ltoes -3.37152
143
root -0.108032 15.7422 -19.6394 -198.056 15.7481 -182.981
lowerback 15.7083 -2.57862 -0.862529
upperback 1.08278 -2.85434 4.50604
thorax -7.37473 -1.13324 5.93781
lowerneck -15.5118 3.2521 2.00172
upperneck 17.1191 5.58484 -6.43598
head 8.11099 2.27361 -1.80584
rclavicle -6.69904e-014 6.36111e-015
rhumerus -59.0861 -33.9247 -52.3404
rradius 28.4187
rwrist 2.95802
rhand -25.5299 -13.375
rfingers 7.12502
rthumb 0.99981 -43.3524
lclavicle -6.69904e-014 6.36111e-015
lhumerus -41.618 11.7798 51.8737
lradius 75.1445
lwrist 7.78517
lhand -32.0206 14.032
lfingers 7.12502
lthumb -5.26858 43.9465
rfemur -15.3125 -5.31697 10.5691
rtibia 86.5545
rfoot -7.98443 -8.88196
rtoes -33.1027
lfemur -31.2821 1.27378 -16.8001
ltibia 55.5263
lfoot -4.60665 -12.3925
ltoes -2.44242
144
root -0.0911278 15.8173 -19.7756 -197.534 15.1039 -182.623
lowerback 15.6271 -2.68969 -0.796443
upperback 0.992951 -2.99599 4.48757
thorax -7.41636 -1.20477 5.90896
lowerneck -15.6648 3.15312 1.93097
upperneck 17.2237 5.43114 -6.26202
head 8.15854 2.20556 -1.75323
rclavicle 2.60408e-014 1.36764e-013
rhumerus -61.0865 -35.1238 -49.6468
rradius 26.9108
rwrist 5.51239
rhand -25.0339 -13.1061
rfingers 7.12502
rthumb 1.47881 -43.0807
lclavicle 2.60408e-014 1.36764e-013
lhumerus -41.6234 12.2571 51.5293
lradius 74.0345
lwrist 7.81244
lhand -31.3065 14.8686
lfingers 7.12502
lthumb -4.57912 44.7991
rfemur -15.4165 -5.94933 10.7918
rtibia 86.4169
rfoot -7.71109 -8.76105
rtoes -31.7194
lfemur -31.1399 1.24884 -16.791
ltibia 55.2628
lfoot -4.85091 -12.9537
ltoes -1.58143
145
root -0.0769587 15.8936 -19.9085 -197.022 14.5745 -182.35
lowerback 15.5312 -2.75028 -0.748019
upperback 0.913676 -3.07614 4.46329
thorax -7.44438 -1.24699 5.86942
lowerneck -15.8248 3.05225 1.8555
upperneck 17.2905 5.27744 -6.1122
head 8.19579 2.13537 -1.70789
rclavicle 2.78299e-015 -2.70347e-014
rhumerus -63.1098 -36.0684 -47.0117
rradius 25.7088
rwrist 7.96383
rhand -24.5475 -12.7565
rfingers 7.12502
rthumb 1.94861 -42.7273
lclavicle 2.78299e-015 -2.70347e-014
lhumerus -41.6796 12.6964 51.2912
lradius 72.9623
lwrist 7.68106
lhand -30.5318 15.4797
lfingers 7.12502
lthumb -3.83103 45.425
rfemur -15.5793 -6.50379 11.0019
rtibia 86.1823
rfoot -7.80001 -8.69007
rtoes -30.8317
lfemur -30.9675 1.23599 -16.813
ltibia 54.938
lfoot -5.0681 -13.4191
ltoes -0.807668
146
root -0.0653915 15.9706 -20.0381 -196.518 14.148 -182.185
lowerback 15.4164 -2.76444 -0.751017
upperback 0.842577 -3.10767 4.42675
thorax -7.45594 -1.26568 5.83412
lowerneck -15.9916 2.95636 1.77973
upperneck 17.3164 5.13287 -5.99035
head 8.22225 2.06721 -1.67073
rclavicle 6.16232e-015 -6.99722e-014
rhumerus -65.0404 -36.7271 -44.5867
rradius 24.8076
rwrist 10.0877
rhand -24.081 -12.394
rfingers 7.12502
rthumb 2.39914 -42.3603
lclavicle 6.16232e-015 -6.99722e-014
lhumerus -41.7929 13.1108 51.1443
lradius 71.9186
lwrist 7.40704
lhand -29.7311 15.835
lfingers 7.12502
lthumb -3.05775 45.7928
rfemur -15.8059 -6.98165 11.1664
rtibia 85.8436
rfoot -8.20031 -8.66213
rtoes -30.4976
lfemur -30.7736 1.22277 -16.9012
ltibia 54.5528
lfoot -5.26251 -13.7762
ltoes -0.138079
147
root -0.0558934 16.0478 -20.1638 -196.015 13.8156 -182.11
lowerback 15.2877 -2.73889 -0.800344
upperback 0.774899 -3.09756 4.38186
thorax -7.45813 -1.26387 5.80654
lowerneck -16.1434 2.86728 1.69549
upperneck 17.2918 5.00003 -5.88849
head 8.23037 2.00316 -1.63767
rclavicle 1.25234e-014 -3.81667e-014
rhumerus -66.7875 -37.1051 -42.4843
rradius 24.1872
rwrist 11.7232
rhand -23.6856 -12.1532
rfingers 7.12502
rthumb 2.78101 -42.1148
lclavicle 1.25234e-014 -3.81667e-014
lhumerus -41.9604 13.4946 51.0825
lradius 70.8951
lwrist 7.02474
lhand -28.9584 15.9452
lfingers 7.12502
lthumb -2.31149 45.9124
rfemur -16.0967 -7.39128 11.3008
rtibia 85.3972
rfoot -8.82779 -8.6874
rtoes -30.6993
lfemur -30.5699 1.20108 -17.0447
ltibia 54.115
lfoot -5.44036 -14.025
ltoes 0.41421
148
root -0.0478166 16.1254 -20.2855 -195.511 13.559 -182.108
lowerback 15.1473 -2.68648 -0.889833
upperback 0.713044 -3.06087 4.32951
thorax -7.44835 -1.24887 5.78739
lowerneck -16.2813 2.78909 1.60983
upperneck 17.218 4.88247 -5.80468
head 8.22087 1.94537 -1.60875
rclavicle -2.74323e-014 2.8625e-014
rhumerus -68.2582 -37.2157 -40.8226
rradius 23.8263
rwrist 12.7447
rhand -23.3826 -12.1105
rfingers 7.12502
rthumb 3.07364 -42.0681
lclavicle -2.74323e-014 2.8625e-014
lhumerus -42.182 13.8536 51.0921
lradius 69.8884
lwrist 6.5655
lhand -28.2536 15.8236
lfingers 7.12502
lthumb -1.63083 45.7971
rfemur -16.4366 -7.74792 11.418
rtibia 84.8386
rfoot -9.58145 -8.78632
rtoes -31.3131
lfemur -30.3562 1.15749 -17.2336
ltibia 53.6286
lfoot -5.60628 -14.1683
ltoes 0.854221
149
root -0.040676 16.2029 -20.4027 -195.004 13.3747 -182.136
lowerback 15.0056 -2.61987 -0.987326
upperback 0.653713 -3.00631 4.27914
thorax -7.4364 -1.22491 5.77128
lowerneck -16.3937 2.72573 1.53244
upperneck 17.1042 4.78568 -5.74387
head 8.19532 1.89689 -1.58662
rclavicle -3.1408e-014 6.36111e-015
rhumerus -69.4321 -37.11 -39.6033
rradius 23.6834
rwrist 13.1664
rhand -23.164 -12.2793
rfingers 7.12502
rthumb 3.28474 -42.2337
lclavicle -3.1408e-014 6.36111e-015
lhumerus -42.4741 14.1836 51.158
lradius 68.9074
lwrist 6.05835
lhand -27.63 15.5
lfingers 7.12502
lthumb -1.0286 45.4773
rfemur -16.8148 -8.05843 11.5615
rtibia 84.1667
rfoot -10.3707 -8.98089
rtoes -32.1381
lfemur -30.1374 1.09072 -17.4256
ltibia 53.1035
lfoot -5.76291 -14.2159
ltoes 1.18461
